<?xml version="1.0" standalone="no"?>
<!DOCTYPE svg PUBLIC "-//W3C//DTD SVG 20010904//EN"
 "http://www.w3.org/TR/2001/REC-SVG-20010904/DTD/svg10.dtd">
<svg version="1.0" xmlns="http://www.w3.org/2000/svg"
 width="354.000000pt" height="355.000000pt" viewBox="0 0 354.000000 355.000000"
 preserveAspectRatio="xMidYMid meet">

<g transform="translate(0.000000,355.000000) scale(0.100000,-0.100000)"
fill="#000000" stroke="none">
<path d="M1787 3209 c-43 -10 -109 -42 -152 -74 -57 -42 -95 -56 -206 -70
-132 -18 -176 -38 -233 -111 l-41 -51 -80 -5 c-98 -6 -176 -39 -224 -93 -175
-200 -36 -543 248 -609 35 -8 65 -16 67 -18 2 -2 -1 -46 -7 -96 -11 -90 -5
-222 10 -222 4 0 13 -28 20 -62 7 -35 22 -90 32 -122 14 -41 17 -62 10 -69 -6
-6 -11 -25 -11 -41 0 -24 12 -42 59 -87 43 -41 63 -68 71 -99 6 -23 9 -44 7
-46 -2 -2 -46 20 -98 49 -105 59 -114 75 -80 131 26 41 27 79 4 102 -25 25
-402 274 -414 274 -74 0 -251 -300 -222 -376 8 -21 424 -227 458 -227 31 0 51
16 81 65 14 21 32 38 42 38 15 0 215 -110 236 -130 4 -4 3 -47 -3 -95 l-12
-88 35 -53 36 -53 -68 -37 c-37 -20 -80 -45 -97 -54 -16 -10 -79 -44 -140 -75
-140 -74 -161 -89 -169 -120 -12 -46 40 -115 85 -115 19 0 109 49 261 141 209
127 234 140 253 128 85 -54 110 -63 191 -67 73 -4 88 -1 135 21 30 14 66 34
80 43 l27 17 236 -141 c162 -98 244 -142 265 -142 48 0 91 69 77 124 -5 19
-52 49 -228 145 -122 66 -227 123 -233 125 -6 2 -2 17 9 37 47 84 47 82 34
162 -9 60 -9 79 1 91 7 9 65 45 128 82 l116 66 38 -17 c56 -26 101 -15 201 46
242 149 308 192 303 197 -3 3 -85 -36 -184 -86 -98 -51 -190 -92 -203 -92 -30
0 -64 23 -70 48 -13 47 16 75 186 181 91 58 166 109 166 114 0 11 15 18 -195
-92 -248 -129 -253 -133 -264 -216 -6 -39 -9 -42 -109 -99 -57 -32 -105 -56
-108 -53 -3 2 0 23 5 46 7 33 23 55 70 99 49 46 61 64 61 88 0 16 -5 35 -11
41 -10 10 10 89 40 158 20 44 31 90 31 126 0 22 3 39 7 39 3 0 28 -14 54 -30
108 -70 230 -88 332 -50 99 37 157 126 165 252 5 91 -9 143 -66 241 -24 41
-42 87 -46 116 -10 73 -44 169 -78 219 -37 54 -86 90 -210 154 -90 46 -105 58
-189 153 -50 57 -109 117 -130 135 -100 80 -267 118 -392 89z m244 -35 c113
-34 171 -77 278 -207 39 -47 83 -94 98 -106 24 -17 25 -20 9 -21 -30 0 -14 -9
47 -25 150 -39 259 -173 289 -355 8 -53 23 -95 50 -142 55 -97 73 -173 58
-246 -21 -98 -61 -156 -134 -194 -34 -17 -53 -20 -130 -16 -75 4 -101 9 -146
32 -107 55 -110 59 -110 133 0 58 2 64 18 58 32 -12 109 -18 115 -7 4 5 -14
12 -44 16 -54 7 -109 48 -109 81 0 35 -43 97 -92 132 l-51 37 43 14 c44 15
130 91 130 114 0 7 -16 -4 -35 -25 -57 -62 -154 -90 -218 -63 -44 18 -181 56
-204 56 -35 0 -106 44 -135 84 -23 31 -29 35 -23 16 4 -14 18 -40 32 -57 l24
-33 -63 -2 c-42 -1 -50 -2 -23 -5 274 -23 514 -124 574 -242 11 -20 25 -74 31
-119 12 -82 10 -275 -2 -288 -4 -4 -23 7 -41 23 -85 74 -225 131 -387 157
-101 16 -225 27 -217 20 2 -3 58 -14 123 -24 119 -20 235 -54 329 -95 48 -21
51 -25 68 -81 11 -36 17 -83 15 -119 -3 -59 -3 -60 30 -74 48 -22 42 -47 -31
-119 -65 -65 -74 -68 -142 -57 -37 6 -41 5 -59 -25 -13 -23 -17 -42 -12 -70 5
-34 3 -41 -22 -59 -18 -12 -53 -22 -100 -26 -74 -8 -78 -10 -63 -34 6 -9 11
-10 15 -2 13 20 36 12 36 -13 0 -30 -19 -44 -31 -25 -8 12 -11 11 -20 -3 -12
-21 -35 -24 -43 -5 -5 9 -7 9 -12 0 -8 -18 -29 -16 -44 2 -10 12 -15 13 -20 4
-12 -18 -30 -1 -30 27 0 21 4 24 26 22 15 -2 29 2 31 8 3 8 -21 14 -69 19 -47
5 -83 14 -101 27 -24 17 -26 24 -21 58 9 52 -27 115 -60 105 -74 -24 -85 -21
-152 46 -74 73 -80 98 -31 120 l32 14 -3 67 c-2 46 2 76 12 97 18 34 19 41 8
41 -20 0 -43 -76 -40 -134 5 -90 -16 -82 -46 18 -15 46 -29 105 -32 129 l-6
45 52 27 c28 14 53 25 55 23 1 -2 8 -14 14 -26 16 -30 4 -43 -15 -18 -17 24
-18 19 -3 -23 14 -39 22 -39 37 1 8 23 9 35 1 45 -27 32 -2 43 175 73 33 5 62
13 65 16 12 12 -155 -8 -227 -27 -67 -18 -153 -61 -160 -81 -2 -4 -8 -6 -13
-2 -16 9 -9 155 11 246 22 99 41 144 75 173 l24 20 -62 0 c-66 1 -93 12 -156
69 -23 22 -30 25 -23 11 17 -33 75 -83 115 -100 40 -16 43 -25 26 -73 -13 -38
-27 -37 -137 14 -94 43 -171 119 -215 211 -28 60 -32 78 -32 153 0 72 4 92 26
135 54 102 161 149 288 126 36 -7 107 -30 159 -52 51 -22 99 -38 105 -36 6 2
-26 23 -71 48 -45 24 -82 50 -82 57 0 8 15 29 34 48 48 48 24 42 -30 -8 -31
-29 -48 -38 -55 -31 -8 8 3 26 38 61 54 57 119 82 209 82 85 0 149 19 216 63
129 84 263 108 389 71z m248 -1389 c4 -5 -3 -45 -16 -88 -30 -95 -49 -99 -45
-9 2 46 -2 70 -17 98 -11 20 -18 41 -15 46 6 9 79 -28 93 -47z m-1328 -101
c105 -68 149 -102 149 -115 0 -11 -4 -19 -8 -19 -14 0 -312 199 -312 208 0 9
10 22 18 22 3 0 72 -43 153 -96z m-61 -97 c85 -49 146 -90 148 -100 2 -9 -2
-17 -8 -17 -14 0 -276 146 -302 168 -10 8 -18 19 -18 24 0 21 45 2 180 -75z
m-45 -104 c143 -72 171 -92 145 -108 -15 -9 -330 153 -330 170 0 26 25 17 185
-62z m560 -145 c8 -78 44 -236 54 -243 5 -2 0 30 -11 73 -21 89 -36 242 -21
227 16 -17 33 -90 33 -142 0 -33 6 -58 18 -74 10 -13 22 -33 26 -44 7 -19 8
-19 17 -2 14 24 29 21 29 -5 0 -12 3 -19 6 -15 11 11 36 -22 31 -41 -4 -14 -6
-14 -12 5 -4 13 -11 20 -16 17 -5 -3 -9 0 -9 5 0 6 -8 11 -17 11 -13 -1 -6
-12 24 -39 43 -39 88 -57 99 -39 3 5 13 8 22 7 30 -3 42 1 42 12 0 6 -9 8 -20
4 -15 -5 -20 -2 -20 14 0 16 6 19 31 19 28 -1 30 -4 27 -30 -4 -22 -1 -28 14
-28 16 0 17 3 8 20 -15 27 -7 37 30 38 24 0 30 -3 28 -16 -2 -10 -11 -16 -21
-14 -9 2 -17 -2 -17 -8 0 -10 14 -14 39 -10 8 1 17 -3 21 -10 4 -6 14 -8 23
-4 9 3 14 11 11 16 -4 6 -9 6 -14 -2 -6 -9 -11 -7 -19 8 -16 30 -4 51 27 47
22 -2 27 -8 27 -29 -1 -14 3 -26 7 -26 15 0 73 59 65 66 -4 5 -12 2 -17 -6 -6
-8 -10 -10 -10 -5 -1 6 -6 -1 -12 -15 -9 -21 -12 -22 -15 -8 -5 19 20 51 31
41 3 -4 6 4 6 17 0 22 1 23 20 5 19 -17 20 -17 26 1 4 11 16 31 26 46 11 16
18 44 18 73 0 49 17 122 32 140 15 17 8 -95 -12 -186 -12 -51 -19 -94 -16 -96
9 -9 41 129 51 225 5 46 11 62 22 62 11 0 14 -6 9 -22 -13 -44 -18 -183 -9
-235 9 -48 8 -56 -18 -102 -40 -70 -143 -177 -204 -212 -45 -26 -59 -29 -141
-29 -58 0 -104 5 -127 15 -48 20 -149 115 -205 193 -40 57 -46 70 -42 106 6
68 5 209 -2 249 -5 28 -3 37 7 37 9 0 15 -20 20 -62z m125 -89 c0 -5 4 -8 9
-4 5 3 13 -4 16 -15 5 -17 10 -19 21 -9 11 9 14 7 14 -16 0 -21 -4 -26 -16
-21 -9 3 -18 6 -20 6 -2 0 -4 6 -4 13 0 7 -9 18 -20 25 -21 13 -27 32 -10 32
6 0 10 -5 10 -11z m460 1 c0 -5 -9 -15 -20 -22 -11 -7 -20 -19 -20 -27 0 -8
-3 -12 -6 -8 -10 10 5 58 16 52 6 -3 10 -1 10 4 0 6 5 11 10 11 6 0 10 -4 10
-10z m-350 -39 c0 -30 -11 -51 -26 -51 -9 0 -14 12 -14 35 0 28 4 35 20 35 13
0 20 -7 20 -19z m260 -16 c0 -37 -22 -49 -34 -19 -12 32 -6 54 14 54 16 0 20
-7 20 -35z m30 10 c0 -14 -4 -25 -10 -25 -5 0 -10 11 -10 25 0 14 5 25 10 25
6 0 10 -11 10 -25z m-265 -122 c7 -20 -15 -59 -24 -44 -5 7 -14 11 -22 9 -9
-2 -15 7 -17 23 -3 23 1 26 27 26 17 0 33 -7 36 -14z m-575 -402 c0 -25 -56
-49 -73 -32 -9 9 -6 16 13 31 32 25 60 26 60 1z m1374 8 c30 -14 41 -38 22
-45 -16 -6 -76 22 -76 35 0 22 19 26 54 10z"/>
<path d="M1845 3150 c-48 -10 -130 -45 -139 -58 -3 -5 25 2 62 16 115 42 260
30 339 -30 l28 -22 -23 26 c-49 54 -179 87 -267 68z"/>
<path d="M863 2703 c-29 -44 -24 -163 9 -235 15 -32 29 -58 31 -58 3 0 -6 34
-19 75 -27 84 -30 151 -10 208 16 44 13 47 -11 10z"/>
<path d="M2578 2695 c48 -42 76 -90 97 -168 l14 -52 0 43 c1 23 -5 57 -13 76
-18 44 -72 103 -110 123 -27 13 -26 11 12 -22z"/>
<path d="M1635 2393 c-64 -10 -39 -18 63 -19 59 -1 143 -7 186 -14 43 -6 80
-10 82 -7 3 3 -27 12 -67 21 -77 17 -215 27 -264 19z"/>
<path d="M2710 1948 c-52 -28 -60 -30 -145 -25 -95 5 -89 -8 8 -19 67 -8 129
9 170 46 39 35 37 35 -33 -2z"/>
<path d="M1674 1869 c19 -16 38 -39 41 -49 8 -25 -10 -57 -36 -65 -24 -8 -79
12 -79 29 0 7 -4 6 -9 -2 -6 -11 -12 -10 -26 4 -10 10 -25 19 -33 20 -8 2 -19
7 -25 13 -16 16 -94 13 -122 -5 -66 -43 -56 -182 17 -220 30 -15 31 -18 13
-24 -19 -7 -18 -8 5 -13 137 -31 203 -3 236 97 9 28 23 60 30 71 14 19 14 19
15 0 0 -11 6 -2 13 20 9 32 16 40 36 40 20 0 27 -8 36 -40 7 -22 13 -31 13
-20 1 19 1 19 15 0 7 -11 16 -34 20 -50 10 -46 42 -93 78 -115 26 -16 43 -18
97 -13 72 6 117 22 66 23 -29 0 -29 1 13 20 31 14 47 29 57 54 27 64 13 142
-30 170 -31 21 -99 20 -130 0 -14 -9 -25 -13 -25 -8 0 4 -11 -3 -25 -16 -17
-16 -25 -19 -25 -9 0 9 -3 10 -8 3 -10 -15 -47 -34 -66 -34 -21 0 -56 36 -56
56 0 9 17 34 39 55 53 53 32 49 -24 -4 l-45 -44 -45 44 c-25 24 -50 43 -56 43
-5 0 6 -14 25 -31z"/>
<path d="M1723 1668 c-42 -47 -76 -201 -53 -243 32 -61 69 -30 71 58 2 103 16
135 18 40 1 -72 4 -85 25 -108 41 -44 70 -13 59 63 -9 68 -45 167 -69 190 -13
12 -25 22 -27 22 -2 0 -13 -10 -24 -22z"/>
<path d="M2167 1499 c-21 -17 -50 -35 -65 -40 -24 -8 -23 -8 8 -4 22 3 48 18
70 40 43 43 37 45 -13 4z"/>
<path d="M1316 1499 c23 -26 67 -49 91 -48 13 0 12 3 -7 10 -13 6 -39 21 -57
34 -39 31 -53 32 -27 4z"/>
<path d="M1726 1230 c-2 -3 3 -15 9 -28 l12 -23 17 25 c9 14 16 27 16 30 0 6
-51 2 -54 -4z"/>
<path d="M1440 1056 c0 -19 30 -73 50 -91 18 -16 17 -10 -10 35 -39 64 -40 66
-40 56z"/>
<path d="M2038 1033 c-8 -16 -23 -41 -33 -58 l-19 -30 25 23 c14 12 31 38 36
57 13 42 9 45 -9 8z"/>
<path d="M1761 858 c-1 -9 6 -24 15 -33 19 -19 60 -13 84 12 13 14 13 14 -7 4
-36 -19 -73 -14 -83 12 -6 16 -9 17 -9 5z"/>
<path d="M1714 849 c-4 -6 -21 -8 -43 -5 -36 6 -36 6 -11 -8 34 -21 47 -20 60
4 11 21 6 28 -6 9z"/>
</g>
</svg>
